<mxfile host="65bd71144e">
    <diagram id="ZzSd9RIM8s81c7YOA8vA" name="Page-1">
        <mxGraphModel dx="1977" dy="1593" grid="1" gridSize="10" guides="1" tooltips="1" connect="1" arrows="1" fold="1" page="1" pageScale="1" pageWidth="850" pageHeight="1100" math="0" shadow="0">
            <root>
                <mxCell id="0"/>
                <mxCell id="1" parent="0"/>
                <mxCell id="71" style="edgeStyle=orthogonalEdgeStyle;html=1;endArrow=none;endFill=0;endSize=15;" parent="1" source="6" edge="1">
                    <mxGeometry relative="1" as="geometry">
                        <mxPoint x="165" y="400" as="targetPoint"/>
                        <Array as="points">
                            <mxPoint x="255" y="400"/>
                        </Array>
                    </mxGeometry>
                </mxCell>
                <mxCell id="6" value="Joueur" style="swimlane;fontStyle=0;childLayout=stackLayout;horizontal=1;startSize=26;fillColor=none;horizontalStack=0;resizeParent=1;resizeParentMax=0;resizeLast=0;collapsible=1;marginBottom=0;" parent="1" vertex="1">
                    <mxGeometry x="185" y="442" width="140" height="52" as="geometry"/>
                </mxCell>
                <mxCell id="69" value="solde" style="text;strokeColor=none;fillColor=none;align=left;verticalAlign=top;spacingLeft=4;spacingRight=4;overflow=hidden;rotatable=0;points=[[0,0.5],[1,0.5]];portConstraint=eastwest;" parent="6" vertex="1">
                    <mxGeometry y="26" width="140" height="26" as="geometry"/>
                </mxCell>
                <mxCell id="70" style="edgeStyle=orthogonalEdgeStyle;html=1;entryX=0.507;entryY=1.153;entryDx=0;entryDy=0;entryPerimeter=0;endArrow=block;endFill=0;endSize=15;" parent="1" source="11" target="46" edge="1">
                    <mxGeometry relative="1" as="geometry">
                        <Array as="points">
                            <mxPoint x="95" y="400"/>
                            <mxPoint x="171" y="400"/>
                        </Array>
                    </mxGeometry>
                </mxCell>
                <mxCell id="11" value="PNJ" style="swimlane;fontStyle=0;childLayout=stackLayout;horizontal=1;startSize=26;fillColor=none;horizontalStack=0;resizeParent=1;resizeParentMax=0;resizeLast=0;collapsible=1;marginBottom=0;" parent="1" vertex="1">
                    <mxGeometry x="10" y="550" width="140" height="52" as="geometry"/>
                </mxCell>
                <mxCell id="10" value="Personnage" style="swimlane;fontStyle=0;childLayout=stackLayout;horizontal=1;startSize=30;fillColor=none;horizontalStack=0;resizeParent=1;resizeParentMax=0;resizeLast=0;collapsible=1;marginBottom=0;movable=1;resizable=1;rotatable=1;deletable=1;editable=1;connectable=1;container=0;" parent="1" vertex="1">
                    <mxGeometry x="100" y="280" width="140" height="82" as="geometry"/>
                </mxCell>
                <mxCell id="44" value="nom" style="text;strokeColor=none;fillColor=none;align=left;verticalAlign=top;spacingLeft=4;spacingRight=4;overflow=hidden;rotatable=0;points=[[0,0.5],[1,0.5]];portConstraint=eastwest;fontStyle=4" parent="10" vertex="1">
                    <mxGeometry y="30" width="140" height="26" as="geometry"/>
                </mxCell>
                <mxCell id="46" value="experience" style="text;strokeColor=none;fillColor=none;align=left;verticalAlign=top;spacingLeft=4;spacingRight=4;overflow=hidden;rotatable=0;points=[[0,0.5],[1,0.5]];portConstraint=eastwest;" parent="10" vertex="1">
                    <mxGeometry y="56" width="140" height="26" as="geometry"/>
                </mxCell>
                <mxCell id="12" value="Classe" style="swimlane;fontStyle=0;childLayout=stackLayout;horizontal=1;startSize=26;fillColor=none;horizontalStack=0;resizeParent=1;resizeParentMax=0;resizeLast=0;collapsible=1;marginBottom=0;" parent="1" vertex="1">
                    <mxGeometry x="520" y="320" width="120" height="78" as="geometry"/>
                </mxCell>
                <mxCell id="90" value="nom" style="text;strokeColor=none;fillColor=none;align=left;verticalAlign=top;spacingLeft=4;spacingRight=4;overflow=hidden;rotatable=0;points=[[0,0.5],[1,0.5]];portConstraint=eastwest;fontStyle=4" parent="12" vertex="1">
                    <mxGeometry y="26" width="120" height="26" as="geometry"/>
                </mxCell>
                <mxCell id="95" value="description" style="text;strokeColor=none;fillColor=none;align=left;verticalAlign=top;spacingLeft=4;spacingRight=4;overflow=hidden;rotatable=0;points=[[0,0.5],[1,0.5]];portConstraint=eastwest;" parent="12" vertex="1">
                    <mxGeometry y="52" width="120" height="26" as="geometry"/>
                </mxCell>
                <mxCell id="13" value="Statistique" style="swimlane;fontStyle=0;childLayout=stackLayout;horizontal=1;startSize=26;fillColor=none;horizontalStack=0;resizeParent=1;resizeParentMax=0;resizeLast=0;collapsible=1;marginBottom=0;" parent="1" vertex="1">
                    <mxGeometry x="470" y="190" width="140" height="78" as="geometry"/>
                </mxCell>
                <mxCell id="83" value="nom" style="text;strokeColor=none;fillColor=none;align=left;verticalAlign=top;spacingLeft=4;spacingRight=4;overflow=hidden;rotatable=0;points=[[0,0.5],[1,0.5]];portConstraint=eastwest;fontStyle=6" parent="13" vertex="1">
                    <mxGeometry y="26" width="140" height="26" as="geometry"/>
                </mxCell>
                <mxCell id="152" value="valeur" style="text;strokeColor=none;fillColor=none;align=left;verticalAlign=top;spacingLeft=4;spacingRight=4;overflow=hidden;rotatable=0;points=[[0,0.5],[1,0.5]];portConstraint=eastwest;" parent="13" vertex="1">
                    <mxGeometry y="52" width="140" height="26" as="geometry"/>
                </mxCell>
                <mxCell id="14" value="Slot" style="swimlane;fontStyle=0;childLayout=stackLayout;horizontal=1;startSize=26;fillColor=none;horizontalStack=0;resizeParent=1;resizeParentMax=0;resizeLast=0;collapsible=1;marginBottom=0;" parent="1" vertex="1">
                    <mxGeometry x="188" y="-63" width="140" height="52" as="geometry"/>
                </mxCell>
                <mxCell id="123" style="edgeStyle=orthogonalEdgeStyle;html=1;entryX=0;entryY=0.5;entryDx=0;entryDy=0;endArrow=diamondThin;endFill=0;endSize=15;" parent="1" target="122" edge="1">
                    <mxGeometry relative="1" as="geometry">
                        <Array as="points">
                            <mxPoint x="103" y="166"/>
                        </Array>
                        <mxPoint x="103.00000000000023" y="82" as="sourcePoint"/>
                    </mxGeometry>
                </mxCell>
                <mxCell id="57" style="edgeStyle=orthogonalEdgeStyle;html=1;entryX=0.5;entryY=1;entryDx=0;entryDy=0;endArrow=block;endFill=0;endSize=15;exitX=0.5;exitY=0;exitDx=0;exitDy=0;" parent="1" source="145" target="14" edge="1">
                    <mxGeometry relative="1" as="geometry">
                        <mxPoint x="258" y="29.999999999999773" as="sourcePoint"/>
                        <Array as="points">
                            <mxPoint x="110" y="20"/>
                            <mxPoint x="258" y="20"/>
                        </Array>
                    </mxGeometry>
                </mxCell>
                <mxCell id="127" style="edgeStyle=orthogonalEdgeStyle;html=1;endArrow=diamondThin;endFill=0;endSize=15;exitX=0.5;exitY=1;exitDx=0;exitDy=0;" parent="1" source="22" target="122" edge="1">
                    <mxGeometry relative="1" as="geometry">
                        <Array as="points">
                            <mxPoint x="380" y="166"/>
                        </Array>
                        <mxPoint x="340" y="180" as="targetPoint"/>
                    </mxGeometry>
                </mxCell>
                <mxCell id="190" style="edgeStyle=none;html=1;endArrow=none;endFill=0;exitX=0.5;exitY=0;exitDx=0;exitDy=0;" parent="1" source="22" edge="1">
                    <mxGeometry relative="1" as="geometry">
                        <mxPoint x="250" y="20" as="targetPoint"/>
                        <Array as="points">
                            <mxPoint x="350" y="20"/>
                            <mxPoint x="320" y="20"/>
                        </Array>
                    </mxGeometry>
                </mxCell>
                <mxCell id="22" value="Slot divers" style="swimlane;fontStyle=0;childLayout=stackLayout;horizontal=1;startSize=26;fillColor=none;horizontalStack=0;resizeParent=1;resizeParentMax=0;resizeLast=0;collapsible=1;marginBottom=0;" parent="1" vertex="1">
                    <mxGeometry x="350" y="28" width="60" height="52" as="geometry"/>
                </mxCell>
                <mxCell id="226" style="edgeStyle=orthogonalEdgeStyle;html=1;endArrow=block;endFill=0;endSize=10;" parent="1" source="23" edge="1">
                    <mxGeometry relative="1" as="geometry">
                        <mxPoint x="90" y="599.9999999999998" as="targetPoint"/>
                    </mxGeometry>
                </mxCell>
                <mxCell id="23" value="Marchand" style="swimlane;fontStyle=0;childLayout=stackLayout;horizontal=1;startSize=26;fillColor=none;horizontalStack=0;resizeParent=1;resizeParentMax=0;resizeLast=0;collapsible=1;marginBottom=0;" parent="1" vertex="1">
                    <mxGeometry x="60" y="646" width="60" height="52" as="geometry"/>
                </mxCell>
                <mxCell id="225" style="edgeStyle=orthogonalEdgeStyle;html=1;endArrow=none;endFill=0;endSize=10;" parent="1" source="24" edge="1">
                    <mxGeometry relative="1" as="geometry">
                        <mxPoint x="100" y="630" as="targetPoint"/>
                        <Array as="points">
                            <mxPoint x="10" y="630"/>
                        </Array>
                    </mxGeometry>
                </mxCell>
                <mxCell id="24" value="Monstre" style="swimlane;fontStyle=0;childLayout=stackLayout;horizontal=1;startSize=26;fillColor=none;horizontalStack=0;resizeParent=1;resizeParentMax=0;resizeLast=0;collapsible=1;marginBottom=0;" parent="1" vertex="1">
                    <mxGeometry x="-25" y="646" width="70" height="52" as="geometry"/>
                </mxCell>
                <mxCell id="227" style="edgeStyle=orthogonalEdgeStyle;html=1;endArrow=none;endFill=0;endSize=10;" parent="1" source="25" edge="1">
                    <mxGeometry relative="1" as="geometry">
                        <mxPoint x="95" y="630" as="targetPoint"/>
                        <Array as="points">
                            <mxPoint x="170" y="630"/>
                        </Array>
                    </mxGeometry>
                </mxCell>
                <mxCell id="25" value="Villageois" style="swimlane;fontStyle=0;childLayout=stackLayout;horizontal=1;startSize=26;fillColor=none;horizontalStack=0;resizeParent=1;resizeParentMax=0;resizeLast=0;collapsible=1;marginBottom=0;" parent="1" vertex="1">
                    <mxGeometry x="130" y="646" width="80" height="52" as="geometry"/>
                </mxCell>
                <mxCell id="236" style="html=1;entryX=0;entryY=0;entryDx=0;entryDy=0;endArrow=none;endFill=0;endSize=10;" parent="1" source="26" target="29" edge="1">
                    <mxGeometry relative="1" as="geometry"/>
                </mxCell>
                <mxCell id="26" value="Objet" style="swimlane;fontStyle=0;childLayout=stackLayout;horizontal=1;startSize=26;fillColor=none;horizontalStack=0;resizeParent=1;resizeParentMax=0;resizeLast=0;collapsible=1;marginBottom=0;" parent="1" vertex="1">
                    <mxGeometry x="850" y="30" width="180" height="130" as="geometry"/>
                </mxCell>
                <mxCell id="99" value="idObj" style="text;strokeColor=none;fillColor=none;align=left;verticalAlign=top;spacingLeft=4;spacingRight=4;overflow=hidden;rotatable=0;points=[[0,0.5],[1,0.5]];portConstraint=eastwest;fontStyle=4" parent="26" vertex="1">
                    <mxGeometry y="26" width="180" height="26" as="geometry"/>
                </mxCell>
                <mxCell id="91" value="nom" style="text;strokeColor=none;fillColor=none;align=left;verticalAlign=top;spacingLeft=4;spacingRight=4;overflow=hidden;rotatable=0;points=[[0,0.5],[1,0.5]];portConstraint=eastwest;" parent="26" vertex="1">
                    <mxGeometry y="52" width="180" height="26" as="geometry"/>
                </mxCell>
                <mxCell id="94" value="description" style="text;strokeColor=none;fillColor=none;align=left;verticalAlign=top;spacingLeft=4;spacingRight=4;overflow=hidden;rotatable=0;points=[[0,0.5],[1,0.5]];portConstraint=eastwest;" parent="26" vertex="1">
                    <mxGeometry y="78" width="180" height="26" as="geometry"/>
                </mxCell>
                <mxCell id="107" value="niveauRequis" style="text;strokeColor=none;fillColor=none;align=left;verticalAlign=top;spacingLeft=4;spacingRight=4;overflow=hidden;rotatable=0;points=[[0,0.5],[1,0.5]];portConstraint=eastwest;" parent="26" vertex="1">
                    <mxGeometry y="104" width="180" height="26" as="geometry"/>
                </mxCell>
                <mxCell id="27" value="Type" style="swimlane;fontStyle=0;childLayout=stackLayout;horizontal=1;startSize=30;fillColor=none;horizontalStack=0;resizeParent=1;resizeParentMax=0;resizeLast=0;collapsible=1;marginBottom=0;" parent="1" vertex="1">
                    <mxGeometry x="800" y="-149" width="140" height="56" as="geometry"/>
                </mxCell>
                <mxCell id="101" value="nom" style="text;strokeColor=none;fillColor=none;align=left;verticalAlign=top;spacingLeft=4;spacingRight=4;overflow=hidden;rotatable=0;points=[[0,0.5],[1,0.5]];portConstraint=eastwest;fontStyle=4" parent="27" vertex="1">
                    <mxGeometry y="30" width="140" height="26" as="geometry"/>
                </mxCell>
                <mxCell id="28" value="Rareté" style="swimlane;fontStyle=0;childLayout=stackLayout;horizontal=1;startSize=26;fillColor=none;horizontalStack=0;resizeParent=1;resizeParentMax=0;resizeLast=0;collapsible=1;marginBottom=0;" parent="1" vertex="1">
                    <mxGeometry x="965" y="-149" width="140" height="52" as="geometry"/>
                </mxCell>
                <mxCell id="97" value="nom" style="text;strokeColor=none;fillColor=none;align=left;verticalAlign=top;spacingLeft=4;spacingRight=4;overflow=hidden;rotatable=0;points=[[0,0.5],[1,0.5]];portConstraint=eastwest;fontStyle=4" parent="28" vertex="1">
                    <mxGeometry y="26" width="140" height="26" as="geometry"/>
                </mxCell>
                <mxCell id="29" value="Quête" style="swimlane;fontStyle=0;childLayout=stackLayout;horizontal=1;startSize=26;fillColor=none;horizontalStack=0;resizeParent=1;resizeParentMax=0;resizeLast=0;collapsible=1;marginBottom=0;" parent="1" vertex="1">
                    <mxGeometry x="1070" y="362" width="140" height="106" as="geometry"/>
                </mxCell>
                <mxCell id="104" value="nom" style="text;strokeColor=none;fillColor=none;align=left;verticalAlign=top;spacingLeft=4;spacingRight=4;overflow=hidden;rotatable=0;points=[[0,0.5],[1,0.5]];portConstraint=eastwest;fontStyle=4" parent="29" vertex="1">
                    <mxGeometry y="26" width="140" height="28" as="geometry"/>
                </mxCell>
                <mxCell id="105" value="description" style="text;strokeColor=none;fillColor=none;align=left;verticalAlign=top;spacingLeft=4;spacingRight=4;overflow=hidden;rotatable=0;points=[[0,0.5],[1,0.5]];portConstraint=eastwest;" parent="29" vertex="1">
                    <mxGeometry y="54" width="140" height="26" as="geometry"/>
                </mxCell>
                <mxCell id="106" value="niveauRequis" style="text;strokeColor=none;fillColor=none;align=left;verticalAlign=top;spacingLeft=4;spacingRight=4;overflow=hidden;rotatable=0;points=[[0,0.5],[1,0.5]];portConstraint=eastwest;" parent="29" vertex="1">
                    <mxGeometry y="80" width="140" height="26" as="geometry"/>
                </mxCell>
                <mxCell id="154" value="" style="endArrow=none;html=1;rounded=0;align=center;verticalAlign=top;endFill=0;labelBackgroundColor=none;endSize=15;entryX=0.5;entryY=0;entryDx=0;entryDy=0;" parent="29" target="29" edge="1">
                    <mxGeometry relative="1" as="geometry">
                        <mxPoint x="140" y="58" as="sourcePoint"/>
                        <mxPoint x="40" as="targetPoint"/>
                        <Array as="points">
                            <mxPoint x="200" y="58"/>
                            <mxPoint x="230" y="58"/>
                            <mxPoint x="250" y="58"/>
                            <mxPoint x="250" y="-69"/>
                            <mxPoint x="70" y="-69"/>
                        </Array>
                    </mxGeometry>
                </mxCell>
                <mxCell id="155" value="requiert" style="resizable=0;html=1;align=left;verticalAlign=bottom;labelBackgroundColor=none;" parent="154" connectable="0" vertex="1">
                    <mxGeometry x="-1" relative="1" as="geometry">
                        <mxPoint x="-71" y="-60" as="offset"/>
                    </mxGeometry>
                </mxCell>
                <mxCell id="156" value="*" style="resizable=0;html=1;align=left;verticalAlign=top;labelBackgroundColor=none;" parent="154" connectable="0" vertex="1">
                    <mxGeometry x="-1" relative="1" as="geometry">
                        <mxPoint x="9" as="offset"/>
                    </mxGeometry>
                </mxCell>
                <mxCell id="157" value="*" style="resizable=0;html=1;align=right;verticalAlign=bottom;labelBackgroundColor=none;" parent="154" connectable="0" vertex="1">
                    <mxGeometry x="1" relative="1" as="geometry">
                        <mxPoint x="-8" as="offset"/>
                    </mxGeometry>
                </mxCell>
                <mxCell id="66" style="edgeStyle=orthogonalEdgeStyle;html=1;endArrow=none;endFill=0;endSize=15;" parent="1" source="30" edge="1">
                    <mxGeometry relative="1" as="geometry">
                        <mxPoint x="1140" y="519" as="targetPoint"/>
                        <Array as="points">
                            <mxPoint x="1035" y="519"/>
                            <mxPoint x="1140" y="519"/>
                        </Array>
                    </mxGeometry>
                </mxCell>
                <mxCell id="30" value="Quête principale" style="swimlane;fontStyle=0;childLayout=stackLayout;horizontal=1;startSize=26;fillColor=none;horizontalStack=0;resizeParent=1;resizeParentMax=0;resizeLast=0;collapsible=1;marginBottom=0;" parent="1" vertex="1">
                    <mxGeometry x="990" y="537" width="90" height="52" as="geometry"/>
                </mxCell>
                <mxCell id="65" style="edgeStyle=orthogonalEdgeStyle;html=1;entryX=0.5;entryY=1;entryDx=0;entryDy=0;endArrow=block;endFill=0;endSize=15;" parent="1" source="31" target="29" edge="1">
                    <mxGeometry relative="1" as="geometry"/>
                </mxCell>
                <mxCell id="31" value="Quête secondaire" style="swimlane;fontStyle=0;childLayout=stackLayout;horizontal=1;startSize=26;fillColor=none;horizontalStack=0;resizeParent=1;resizeParentMax=0;resizeLast=0;collapsible=1;marginBottom=0;" parent="1" vertex="1">
                    <mxGeometry x="1090" y="537" width="100" height="52" as="geometry"/>
                </mxCell>
                <mxCell id="67" style="edgeStyle=orthogonalEdgeStyle;html=1;endArrow=none;endFill=0;endSize=15;" parent="1" source="32" edge="1">
                    <mxGeometry relative="1" as="geometry">
                        <mxPoint x="1140" y="519" as="targetPoint"/>
                        <Array as="points">
                            <mxPoint x="1235" y="519"/>
                        </Array>
                    </mxGeometry>
                </mxCell>
                <mxCell id="32" value="Evénement" style="swimlane;fontStyle=0;childLayout=stackLayout;horizontal=1;startSize=26;fillColor=none;horizontalStack=0;resizeParent=1;resizeParentMax=0;resizeLast=0;collapsible=1;marginBottom=0;" parent="1" vertex="1">
                    <mxGeometry x="1200" y="537" width="120" height="78" as="geometry"/>
                </mxCell>
                <mxCell id="112" value="dateDébut" style="text;strokeColor=none;fillColor=none;align=left;verticalAlign=top;spacingLeft=4;spacingRight=4;overflow=hidden;rotatable=0;points=[[0,0.5],[1,0.5]];portConstraint=eastwest;" parent="32" vertex="1">
                    <mxGeometry y="26" width="120" height="26" as="geometry"/>
                </mxCell>
                <mxCell id="113" value="dateFin" style="text;strokeColor=none;fillColor=none;align=left;verticalAlign=top;spacingLeft=4;spacingRight=4;overflow=hidden;rotatable=0;points=[[0,0.5],[1,0.5]];portConstraint=eastwest;" parent="32" vertex="1">
                    <mxGeometry y="52" width="120" height="26" as="geometry"/>
                </mxCell>
                <mxCell id="68" style="edgeStyle=orthogonalEdgeStyle;html=1;endArrow=none;endFill=0;endSize=15;" parent="1" source="33" edge="1">
                    <mxGeometry relative="1" as="geometry">
                        <mxPoint x="1220" y="519" as="targetPoint"/>
                        <Array as="points">
                            <mxPoint x="1370" y="519"/>
                        </Array>
                    </mxGeometry>
                </mxCell>
                <mxCell id="33" value="Défi" style="swimlane;fontStyle=0;childLayout=stackLayout;horizontal=1;startSize=26;fillColor=none;horizontalStack=0;resizeParent=1;resizeParentMax=0;resizeLast=0;collapsible=1;marginBottom=0;" parent="1" vertex="1">
                    <mxGeometry x="1350" y="537" width="50" height="52" as="geometry"/>
                </mxCell>
                <mxCell id="64" style="edgeStyle=orthogonalEdgeStyle;html=1;endArrow=none;endFill=0;endSize=15;" parent="1" source="34" edge="1">
                    <mxGeometry relative="1" as="geometry">
                        <mxPoint x="1380" y="629" as="targetPoint"/>
                        <Array as="points">
                            <mxPoint x="1290" y="629"/>
                        </Array>
                    </mxGeometry>
                </mxCell>
                <mxCell id="34" value="Quotidient" style="swimlane;fontStyle=0;childLayout=stackLayout;horizontal=1;startSize=26;fillColor=none;horizontalStack=0;resizeParent=1;resizeParentMax=0;resizeLast=0;collapsible=1;marginBottom=0;" parent="1" vertex="1">
                    <mxGeometry x="1260" y="649" width="60" height="52" as="geometry"/>
                </mxCell>
                <mxCell id="62" style="edgeStyle=orthogonalEdgeStyle;html=1;entryX=0.5;entryY=1;entryDx=0;entryDy=0;endArrow=block;endFill=0;endSize=15;" parent="1" source="35" target="33" edge="1">
                    <mxGeometry relative="1" as="geometry"/>
                </mxCell>
                <mxCell id="35" value="Hebdomadaire" style="swimlane;fontStyle=0;childLayout=stackLayout;horizontal=1;startSize=26;fillColor=none;horizontalStack=0;resizeParent=1;resizeParentMax=0;resizeLast=0;collapsible=1;marginBottom=0;" parent="1" vertex="1">
                    <mxGeometry x="1330" y="649" width="90" height="52" as="geometry"/>
                </mxCell>
                <mxCell id="63" style="edgeStyle=orthogonalEdgeStyle;html=1;endArrow=none;endFill=0;endSize=15;" parent="1" source="36" edge="1">
                    <mxGeometry relative="1" as="geometry">
                        <mxPoint x="1370" y="629" as="targetPoint"/>
                        <Array as="points">
                            <mxPoint x="1460" y="629"/>
                        </Array>
                    </mxGeometry>
                </mxCell>
                <mxCell id="36" value="Mensuel" style="swimlane;fontStyle=0;childLayout=stackLayout;horizontal=1;startSize=26;fillColor=none;horizontalStack=0;resizeParent=1;resizeParentMax=0;resizeLast=0;collapsible=1;marginBottom=0;" parent="1" vertex="1">
                    <mxGeometry x="1430" y="649" width="60" height="52" as="geometry"/>
                </mxCell>
                <mxCell id="74" value="" style="endArrow=none;html=1;rounded=0;align=center;verticalAlign=top;endFill=0;labelBackgroundColor=none;endSize=15;exitX=1;exitY=0.25;exitDx=0;exitDy=0;entryX=-0.031;entryY=0.919;entryDx=0;entryDy=0;entryPerimeter=0;" parent="1" source="6" edge="1">
                    <mxGeometry relative="1" as="geometry">
                        <mxPoint x="390" y="450" as="sourcePoint"/>
                        <mxPoint x="516.2800000000002" y="369.894" as="targetPoint"/>
                    </mxGeometry>
                </mxCell>
                <mxCell id="75" value="a &amp;gt;" style="resizable=0;html=1;align=left;verticalAlign=bottom;labelBackgroundColor=none;" parent="74" connectable="0" vertex="1">
                    <mxGeometry x="-1" relative="1" as="geometry">
                        <mxPoint x="95" y="-25" as="offset"/>
                    </mxGeometry>
                </mxCell>
                <mxCell id="76" value="*" style="resizable=0;html=1;align=left;verticalAlign=top;labelBackgroundColor=none;" parent="74" connectable="0" vertex="1">
                    <mxGeometry x="-1" relative="1" as="geometry">
                        <mxPoint y="-25" as="offset"/>
                    </mxGeometry>
                </mxCell>
                <mxCell id="77" value="1" style="resizable=0;html=1;align=right;verticalAlign=bottom;labelBackgroundColor=none;" parent="74" connectable="0" vertex="1">
                    <mxGeometry x="1" relative="1" as="geometry">
                        <mxPoint x="-10" as="offset"/>
                    </mxGeometry>
                </mxCell>
                <mxCell id="78" value="" style="endArrow=none;html=1;rounded=0;align=center;verticalAlign=top;endFill=0;labelBackgroundColor=none;endSize=15;entryX=0;entryY=0.5;entryDx=0;entryDy=0;exitX=1;exitY=0.5;exitDx=0;exitDy=0;" parent="1" source="44" target="83" edge="1">
                    <mxGeometry relative="1" as="geometry">
                        <mxPoint x="310" y="320" as="sourcePoint"/>
                        <mxPoint x="468.32000000000016" y="319.55999999999995" as="targetPoint"/>
                    </mxGeometry>
                </mxCell>
                <mxCell id="79" value="possède &amp;gt;" style="resizable=0;html=1;align=left;verticalAlign=bottom;labelBackgroundColor=none;" parent="78" connectable="0" vertex="1">
                    <mxGeometry x="-1" relative="1" as="geometry">
                        <mxPoint x="80" y="-53" as="offset"/>
                    </mxGeometry>
                </mxCell>
                <mxCell id="80" value="1..*" style="resizable=0;html=1;align=left;verticalAlign=top;labelBackgroundColor=none;" parent="78" connectable="0" vertex="1">
                    <mxGeometry x="-1" relative="1" as="geometry">
                        <mxPoint y="-3" as="offset"/>
                    </mxGeometry>
                </mxCell>
                <mxCell id="81" value="1..*" style="resizable=0;html=1;align=right;verticalAlign=bottom;labelBackgroundColor=none;" parent="78" connectable="0" vertex="1">
                    <mxGeometry x="1" relative="1" as="geometry">
                        <mxPoint x="-8" as="offset"/>
                    </mxGeometry>
                </mxCell>
                <mxCell id="109" value="Les quêtes et/ou monstre permettent d'avoir des récompenses (Comment on veut représenter ?)" style="whiteSpace=wrap;html=1;fillColor=#dae8fc;strokeColor=#6c8ebf;" parent="1" vertex="1">
                    <mxGeometry x="1475" y="280" width="130" height="100" as="geometry"/>
                </mxCell>
                <mxCell id="110" value="Le niveauRequis est un attribut ou une classe ?" style="whiteSpace=wrap;html=1;labelBackgroundColor=none;fillColor=#dae8fc;strokeColor=#6c8ebf;" parent="1" vertex="1">
                    <mxGeometry x="1470" y="124" width="120" height="60" as="geometry"/>
                </mxCell>
                <mxCell id="111" value="Buff et débuff sont des Statistique ?" style="whiteSpace=wrap;html=1;labelBackgroundColor=none;fillColor=#dae8fc;strokeColor=#6c8ebf;" parent="1" vertex="1">
                    <mxGeometry x="1470" y="50" width="120" height="60" as="geometry"/>
                </mxCell>
                <mxCell id="114" value="Comment représenté les prérequis pour les quêtes principales/secondaires ?" style="whiteSpace=wrap;html=1;labelBackgroundColor=none;fillColor=#dae8fc;strokeColor=#6c8ebf;" parent="1" vertex="1">
                    <mxGeometry x="1470" y="192" width="140" height="76" as="geometry"/>
                </mxCell>
                <mxCell id="116" value="" style="endArrow=none;html=1;rounded=0;align=center;verticalAlign=top;endFill=0;labelBackgroundColor=none;endSize=15;exitX=0.75;exitY=0;exitDx=0;exitDy=0;" parent="1" source="6" edge="1">
                    <mxGeometry relative="1" as="geometry">
                        <mxPoint x="260" y="280" as="sourcePoint"/>
                        <mxPoint x="290" y="190" as="targetPoint"/>
                    </mxGeometry>
                </mxCell>
                <mxCell id="117" value="dispose &amp;gt;" style="resizable=0;html=1;align=left;verticalAlign=bottom;labelBackgroundColor=none;" parent="116" connectable="0" vertex="1">
                    <mxGeometry x="-1" relative="1" as="geometry">
                        <mxPoint y="-102" as="offset"/>
                    </mxGeometry>
                </mxCell>
                <mxCell id="118" value="*" style="resizable=0;html=1;align=left;verticalAlign=top;labelBackgroundColor=none;" parent="116" connectable="0" vertex="1">
                    <mxGeometry x="-1" relative="1" as="geometry">
                        <mxPoint x="10" y="-20" as="offset"/>
                    </mxGeometry>
                </mxCell>
                <mxCell id="119" value="1" style="resizable=0;html=1;align=right;verticalAlign=bottom;labelBackgroundColor=none;" parent="116" connectable="0" vertex="1">
                    <mxGeometry x="1" relative="1" as="geometry">
                        <mxPoint x="-8" y="18" as="offset"/>
                    </mxGeometry>
                </mxCell>
                <mxCell id="122" value="Inventaire" style="swimlane;fontStyle=0;childLayout=stackLayout;horizontal=1;startSize=26;fillColor=none;horizontalStack=0;resizeParent=1;resizeParentMax=0;resizeLast=0;collapsible=1;marginBottom=0;" parent="1" vertex="1">
                    <mxGeometry x="188" y="140" width="140" height="52" as="geometry"/>
                </mxCell>
                <mxCell id="129" value="1" style="text;html=1;align=center;verticalAlign=middle;resizable=0;points=[];autosize=1;strokeColor=none;fillColor=none;" parent="1" vertex="1">
                    <mxGeometry x="140" y="162" width="30" height="30" as="geometry"/>
                </mxCell>
                <mxCell id="131" value="5" style="text;html=1;align=center;verticalAlign=middle;resizable=0;points=[];autosize=1;strokeColor=none;fillColor=none;" parent="1" vertex="1">
                    <mxGeometry x="95" y="80" width="30" height="30" as="geometry"/>
                </mxCell>
                <mxCell id="135" value="1" style="text;html=1;align=center;verticalAlign=middle;resizable=0;points=[];autosize=1;strokeColor=none;fillColor=none;" parent="1" vertex="1">
                    <mxGeometry x="328" y="140" width="30" height="30" as="geometry"/>
                </mxCell>
                <mxCell id="137" value="64" style="text;html=1;align=center;verticalAlign=middle;resizable=0;points=[];autosize=1;strokeColor=none;fillColor=none;" parent="1" vertex="1">
                    <mxGeometry x="370" y="80" width="40" height="30" as="geometry"/>
                </mxCell>
                <mxCell id="145" value="Slot équipement" style="swimlane;fontStyle=0;childLayout=stackLayout;horizontal=1;startSize=26;horizontalStack=0;resizeParent=1;resizeParentMax=0;resizeLast=0;collapsible=1;marginBottom=0;" parent="1" vertex="1">
                    <mxGeometry x="60" y="28" width="100" height="52" as="geometry"/>
                </mxCell>
                <mxCell id="148" value="" style="endArrow=none;html=1;rounded=0;align=center;verticalAlign=top;endFill=0;labelBackgroundColor=none;endSize=15;entryX=0;entryY=0.5;entryDx=0;entryDy=0;exitX=1.037;exitY=0.01;exitDx=0;exitDy=0;exitPerimeter=0;" parent="1" source="83" target="91" edge="1">
                    <mxGeometry relative="1" as="geometry">
                        <mxPoint x="608.5999999999999" y="321.328" as="sourcePoint"/>
                        <mxPoint x="478.32000000000016" y="329.55999999999995" as="targetPoint"/>
                    </mxGeometry>
                </mxCell>
                <mxCell id="149" value="&amp;lt; a pour modificateur" style="resizable=0;html=1;align=left;verticalAlign=bottom;labelBackgroundColor=none;" parent="148" connectable="0" vertex="1">
                    <mxGeometry x="-1" relative="1" as="geometry">
                        <mxPoint x="25" y="-66" as="offset"/>
                    </mxGeometry>
                </mxCell>
                <mxCell id="150" value="*" style="resizable=0;html=1;align=left;verticalAlign=top;labelBackgroundColor=none;" parent="148" connectable="0" vertex="1">
                    <mxGeometry x="-1" relative="1" as="geometry">
                        <mxPoint x="11" y="-11" as="offset"/>
                    </mxGeometry>
                </mxCell>
                <mxCell id="151" value="*" style="resizable=0;html=1;align=right;verticalAlign=bottom;labelBackgroundColor=none;" parent="148" connectable="0" vertex="1">
                    <mxGeometry x="1" relative="1" as="geometry">
                        <mxPoint x="-8" as="offset"/>
                    </mxGeometry>
                </mxCell>
                <mxCell id="159" value="requise" style="resizable=0;html=1;align=left;verticalAlign=bottom;labelBackgroundColor=none;" parent="1" connectable="0" vertex="1">
                    <mxGeometry x="1230" y="415.002" as="geometry"/>
                </mxCell>
                <mxCell id="237" style="edgeStyle=none;html=1;endArrow=none;endFill=0;endSize=10;dashed=1;dashPattern=12 12;" parent="1" source="160" edge="1">
                    <mxGeometry relative="1" as="geometry">
                        <mxPoint x="1020" y="260" as="targetPoint"/>
                    </mxGeometry>
                </mxCell>
                <mxCell id="160" value="Récompense" style="swimlane;fontStyle=0;childLayout=stackLayout;horizontal=1;startSize=26;fillColor=none;horizontalStack=0;resizeParent=1;resizeParentMax=0;resizeLast=0;collapsible=1;marginBottom=0;" parent="1" vertex="1">
                    <mxGeometry x="870" y="250" width="120" height="78" as="geometry"/>
                </mxCell>
                <mxCell id="161" value="montant" style="text;strokeColor=none;fillColor=none;align=left;verticalAlign=top;spacingLeft=4;spacingRight=4;overflow=hidden;rotatable=0;points=[[0,0.5],[1,0.5]];portConstraint=eastwest;" parent="160" vertex="1">
                    <mxGeometry y="26" width="120" height="26" as="geometry"/>
                </mxCell>
                <mxCell id="163" value="experience" style="text;strokeColor=none;fillColor=none;align=left;verticalAlign=top;spacingLeft=4;spacingRight=4;overflow=hidden;rotatable=0;points=[[0,0.5],[1,0.5]];portConstraint=eastwest;" parent="160" vertex="1">
                    <mxGeometry y="52" width="120" height="26" as="geometry"/>
                </mxCell>
                <mxCell id="165" value="&lt;span style=&quot;&quot;&gt;CI: Le niveau d'un joueur est représenté par son experience totale / 100.&lt;/span&gt;" style="whiteSpace=wrap;html=1;labelBackgroundColor=none;fillColor=#f5f5f5;fontColor=#333333;strokeColor=#666666;" parent="1" vertex="1">
                    <mxGeometry x="600" y="-131" width="120" height="60" as="geometry"/>
                </mxCell>
                <mxCell id="174" value="" style="endArrow=none;html=1;rounded=0;align=center;verticalAlign=top;endFill=0;labelBackgroundColor=none;exitX=0.103;exitY=-0.012;exitDx=0;exitDy=0;entryX=0.505;entryY=1.038;entryDx=0;entryDy=0;entryPerimeter=0;exitPerimeter=0;" parent="1" source="26" target="101" edge="1">
                    <mxGeometry relative="1" as="geometry">
                        <mxPoint x="1050" y="-20" as="sourcePoint"/>
                        <mxPoint x="1040" y="-60" as="targetPoint"/>
                    </mxGeometry>
                </mxCell>
                <mxCell id="175" value="1" style="resizable=0;html=1;align=left;verticalAlign=bottom;labelBackgroundColor=none;" parent="174" connectable="0" vertex="1">
                    <mxGeometry x="-1" relative="1" as="geometry">
                        <mxPoint x="-10" y="-98" as="offset"/>
                    </mxGeometry>
                </mxCell>
                <mxCell id="176" value="1..*" style="resizable=0;html=1;align=left;verticalAlign=top;labelBackgroundColor=none;" parent="174" connectable="0" vertex="1">
                    <mxGeometry x="-1" relative="1" as="geometry">
                        <mxPoint x="-30" y="-30" as="offset"/>
                    </mxGeometry>
                </mxCell>
                <mxCell id="177" value="&amp;nbsp;&amp;lt; associe" style="resizable=0;html=1;align=right;verticalAlign=bottom;labelBackgroundColor=none;direction=south;" parent="174" connectable="0" vertex="1">
                    <mxGeometry x="1" relative="1" as="geometry">
                        <mxPoint x="-1" y="62" as="offset"/>
                    </mxGeometry>
                </mxCell>
                <mxCell id="178" value="" style="endArrow=none;html=1;rounded=0;align=center;verticalAlign=top;endFill=0;labelBackgroundColor=none;entryX=0.75;entryY=0;entryDx=0;entryDy=0;exitX=0.114;exitY=1.013;exitDx=0;exitDy=0;exitPerimeter=0;" parent="1" source="97" target="26" edge="1">
                    <mxGeometry relative="1" as="geometry">
                        <mxPoint x="980" y="-80" as="sourcePoint"/>
                        <mxPoint x="1140" y="-80" as="targetPoint"/>
                    </mxGeometry>
                </mxCell>
                <mxCell id="179" value="1" style="resizable=0;html=1;align=left;verticalAlign=bottom;labelBackgroundColor=none;" parent="178" connectable="0" vertex="1">
                    <mxGeometry x="-1" relative="1" as="geometry">
                        <mxPoint x="-11" y="21" as="offset"/>
                    </mxGeometry>
                </mxCell>
                <mxCell id="180" value="1..*" style="resizable=0;html=1;align=left;verticalAlign=top;labelBackgroundColor=none;" parent="178" connectable="0" vertex="1">
                    <mxGeometry x="-1" relative="1" as="geometry">
                        <mxPoint x="9" y="97" as="offset"/>
                    </mxGeometry>
                </mxCell>
                <mxCell id="181" value="&amp;lt; est" style="resizable=0;html=1;align=right;verticalAlign=bottom;labelBackgroundColor=none;" parent="178" connectable="0" vertex="1">
                    <mxGeometry x="1" relative="1" as="geometry">
                        <mxPoint x="-5" y="-40" as="offset"/>
                    </mxGeometry>
                </mxCell>
                <mxCell id="182" value="" style="endArrow=none;html=1;rounded=0;align=center;verticalAlign=top;endFill=0;labelBackgroundColor=none;exitX=1;exitY=0.75;exitDx=0;exitDy=0;entryX=0.002;entryY=-0.266;entryDx=0;entryDy=0;entryPerimeter=0;" parent="1" source="14" target="99" edge="1">
                    <mxGeometry relative="1" as="geometry">
                        <mxPoint x="660" y="40" as="sourcePoint"/>
                        <mxPoint x="820" y="40" as="targetPoint"/>
                    </mxGeometry>
                </mxCell>
                <mxCell id="183" value="contient &amp;gt;" style="resizable=0;html=1;align=left;verticalAlign=bottom;labelBackgroundColor=none;" parent="182" connectable="0" vertex="1">
                    <mxGeometry x="-1" relative="1" as="geometry">
                        <mxPoint x="252" y="34" as="offset"/>
                    </mxGeometry>
                </mxCell>
                <mxCell id="184" value="0..1" style="resizable=0;html=1;align=left;verticalAlign=top;labelBackgroundColor=none;" parent="182" connectable="0" vertex="1">
                    <mxGeometry x="-1" relative="1" as="geometry"/>
                </mxCell>
                <mxCell id="185" value="0..1" style="resizable=0;html=1;align=right;verticalAlign=bottom;labelBackgroundColor=none;" parent="182" connectable="0" vertex="1">
                    <mxGeometry x="1" relative="1" as="geometry"/>
                </mxCell>
                <mxCell id="186" value="Il faut ajouter isEquip pour les objets qui sont utilisées. On a pas d'indication sinon si on applique ou pas le buff/debuff de l'objet en question" style="whiteSpace=wrap;html=1;fillColor=#dae8fc;strokeColor=#6c8ebf;" parent="1" vertex="1">
                    <mxGeometry x="1475" y="404" width="180" height="88" as="geometry"/>
                </mxCell>
                <mxCell id="188" value="CI: Le slot d'équipement peut accepter uniquement un objet de type de ce slot (Casque, buste, etc.)" style="whiteSpace=wrap;html=1;" parent="1" vertex="1">
                    <mxGeometry x="-110" y="28" width="150" height="90" as="geometry"/>
                </mxCell>
                <mxCell id="192" value="" style="endArrow=none;html=1;rounded=0;align=center;verticalAlign=top;endFill=0;labelBackgroundColor=none;entryX=-0.004;entryY=0.817;entryDx=0;entryDy=0;exitX=1;exitY=0.5;exitDx=0;exitDy=0;entryPerimeter=0;" parent="1" source="25" target="106" edge="1">
                    <mxGeometry relative="1" as="geometry">
                        <mxPoint x="943.8799999999997" y="376.62799999999993" as="sourcePoint"/>
                        <mxPoint x="1080" y="437" as="targetPoint"/>
                    </mxGeometry>
                </mxCell>
                <mxCell id="193" value="1" style="resizable=0;html=1;align=left;verticalAlign=bottom;labelBackgroundColor=none;" parent="192" connectable="0" vertex="1">
                    <mxGeometry x="-1" relative="1" as="geometry">
                        <mxPoint x="5" y="16" as="offset"/>
                    </mxGeometry>
                </mxCell>
                <mxCell id="194" value="*" style="resizable=0;html=1;align=left;verticalAlign=top;labelBackgroundColor=none;" parent="192" connectable="0" vertex="1">
                    <mxGeometry x="-1" relative="1" as="geometry">
                        <mxPoint x="840" y="-222" as="offset"/>
                    </mxGeometry>
                </mxCell>
                <mxCell id="201" value="" style="endArrow=none;html=1;rounded=0;align=center;verticalAlign=top;endFill=0;labelBackgroundColor=none;exitX=0;exitY=0;exitDx=0;exitDy=0;" parent="1" source="145" edge="1">
                    <mxGeometry relative="1" as="geometry">
                        <mxPoint x="338" y="-13.999999999999773" as="sourcePoint"/>
                        <mxPoint x="850" y="-150" as="targetPoint"/>
                        <Array as="points">
                            <mxPoint x="60" y="-200"/>
                            <mxPoint x="850" y="-200"/>
                        </Array>
                    </mxGeometry>
                </mxCell>
                <mxCell id="203" value="0..1" style="resizable=0;html=1;align=left;verticalAlign=top;labelBackgroundColor=none;" parent="201" connectable="0" vertex="1">
                    <mxGeometry x="-1" relative="1" as="geometry">
                        <mxPoint y="-28" as="offset"/>
                    </mxGeometry>
                </mxCell>
                <mxCell id="204" value="1" style="resizable=0;html=1;align=right;verticalAlign=bottom;labelBackgroundColor=none;" parent="201" connectable="0" vertex="1">
                    <mxGeometry x="1" relative="1" as="geometry"/>
                </mxCell>
                <mxCell id="205" value="a &amp;gt;" style="text;html=1;align=center;verticalAlign=middle;resizable=0;points=[];autosize=1;strokeColor=none;fillColor=none;" parent="1" vertex="1">
                    <mxGeometry x="410" y="-200" width="40" height="30" as="geometry"/>
                </mxCell>
                <mxCell id="208" value="" style="endArrow=none;html=1;rounded=0;align=center;verticalAlign=top;endFill=0;labelBackgroundColor=none;entryX=-0.013;entryY=1.096;entryDx=0;entryDy=0;exitX=1;exitY=0;exitDx=0;exitDy=0;entryPerimeter=0;" parent="1" source="12" target="107" edge="1">
                    <mxGeometry relative="1" as="geometry">
                        <mxPoint x="943.8800000000001" y="376.62799999999993" as="sourcePoint"/>
                        <mxPoint x="1080" y="437" as="targetPoint"/>
                    </mxGeometry>
                </mxCell>
                <mxCell id="209" value="*" style="resizable=0;html=1;align=left;verticalAlign=bottom;labelBackgroundColor=none;" parent="208" connectable="0" vertex="1">
                    <mxGeometry x="-1" relative="1" as="geometry">
                        <mxPoint x="-10" as="offset"/>
                    </mxGeometry>
                </mxCell>
                <mxCell id="210" value="*" style="resizable=0;html=1;align=left;verticalAlign=top;labelBackgroundColor=none;" parent="208" connectable="0" vertex="1">
                    <mxGeometry x="-1" relative="1" as="geometry">
                        <mxPoint x="200" y="-170" as="offset"/>
                    </mxGeometry>
                </mxCell>
                <mxCell id="211" value="&amp;lt; utilisable par" style="text;html=1;align=center;verticalAlign=middle;resizable=0;points=[];autosize=1;strokeColor=none;fillColor=none;" parent="1" vertex="1">
                    <mxGeometry x="710" y="250" width="100" height="30" as="geometry"/>
                </mxCell>
                <mxCell id="244" style="edgeStyle=none;html=1;endArrow=none;endFill=0;endSize=10;dashed=1;dashPattern=12 12;" parent="1" source="212" edge="1">
                    <mxGeometry relative="1" as="geometry">
                        <mxPoint x="750" y="450" as="targetPoint"/>
                    </mxGeometry>
                </mxCell>
                <mxCell id="212" value="accepte" style="swimlane;fontStyle=0;childLayout=stackLayout;horizontal=1;startSize=26;fillColor=none;horizontalStack=0;resizeParent=1;resizeParentMax=0;resizeLast=0;collapsible=1;marginBottom=0;" parent="1" vertex="1">
                    <mxGeometry x="690" y="352" width="120" height="52" as="geometry"/>
                </mxCell>
                <mxCell id="213" value="complété" style="text;strokeColor=none;fillColor=none;align=left;verticalAlign=top;spacingLeft=4;spacingRight=4;overflow=hidden;rotatable=0;points=[[0,0.5],[1,0.5]];portConstraint=eastwest;" parent="212" vertex="1">
                    <mxGeometry y="26" width="120" height="26" as="geometry"/>
                </mxCell>
                <mxCell id="229" value="{Disjointe, Totale}" style="text;html=1;align=center;verticalAlign=middle;resizable=0;points=[];autosize=1;strokeColor=none;fillColor=none;" parent="1" vertex="1">
                    <mxGeometry x="90" y="602" width="120" height="30" as="geometry"/>
                </mxCell>
                <mxCell id="232" value="{Disjointe, Totale}" style="text;html=1;align=center;verticalAlign=middle;resizable=0;points=[];autosize=1;strokeColor=none;fillColor=none;" parent="1" vertex="1">
                    <mxGeometry x="45" y="370" width="120" height="30" as="geometry"/>
                </mxCell>
                <mxCell id="233" value="{Disjointe, Totale}" style="text;html=1;align=center;verticalAlign=middle;resizable=0;points=[];autosize=1;strokeColor=none;fillColor=none;" parent="1" vertex="1">
                    <mxGeometry x="130" y="-11" width="120" height="30" as="geometry"/>
                </mxCell>
                <mxCell id="234" value="{Disjointe, Totale}" style="text;html=1;align=center;verticalAlign=middle;resizable=0;points=[];autosize=1;strokeColor=none;fillColor=none;" parent="1" vertex="1">
                    <mxGeometry x="1380" y="602" width="120" height="30" as="geometry"/>
                </mxCell>
                <mxCell id="235" value="{Disjointe, Totale}" style="text;html=1;align=center;verticalAlign=middle;resizable=0;points=[];autosize=1;strokeColor=none;fillColor=none;" parent="1" vertex="1">
                    <mxGeometry x="1190" y="490" width="120" height="30" as="geometry"/>
                </mxCell>
                <mxCell id="241" value="*" style="text;html=1;align=center;verticalAlign=middle;resizable=0;points=[];autosize=1;strokeColor=none;fillColor=none;" parent="1" vertex="1">
                    <mxGeometry x="940" y="162" width="30" height="30" as="geometry"/>
                </mxCell>
                <mxCell id="242" value="*" style="text;html=1;align=center;verticalAlign=middle;resizable=0;points=[];autosize=1;strokeColor=none;fillColor=none;" parent="1" vertex="1">
                    <mxGeometry x="1035" y="350" width="30" height="30" as="geometry"/>
                </mxCell>
                <mxCell id="243" style="edgeStyle=none;html=1;endArrow=none;endFill=0;endSize=10;" parent="1" source="69" target="105" edge="1">
                    <mxGeometry relative="1" as="geometry"/>
                </mxCell>
                <mxCell id="245" value="*" style="text;html=1;align=center;verticalAlign=middle;resizable=0;points=[];autosize=1;strokeColor=none;fillColor=none;" parent="1" vertex="1">
                    <mxGeometry x="395" y="475" width="30" height="30" as="geometry"/>
                </mxCell>
                <mxCell id="246" value="*" style="text;html=1;align=center;verticalAlign=middle;resizable=0;points=[];autosize=1;strokeColor=none;fillColor=none;" parent="1" vertex="1">
                    <mxGeometry x="1040" y="404" width="30" height="30" as="geometry"/>
                </mxCell>
                <mxCell id="250" style="edgeStyle=none;html=1;endArrow=none;endFill=0;dashed=1;dashPattern=12 12;" edge="1" parent="1" source="248">
                    <mxGeometry relative="1" as="geometry">
                        <mxPoint x="750" y="540" as="targetPoint"/>
                    </mxGeometry>
                </mxCell>
                <mxCell id="248" value="Propose" style="swimlane;fontStyle=0;childLayout=stackLayout;horizontal=1;startSize=26;fillColor=none;horizontalStack=0;resizeParent=1;resizeParentMax=0;resizeLast=0;collapsible=1;marginBottom=0;" vertex="1" parent="1">
                    <mxGeometry x="690" y="591" width="120" height="52" as="geometry"/>
                </mxCell>
            </root>
        </mxGraphModel>
    </diagram>
</mxfile>